Normalized EMG Linear Envelopes
nRows=264
nColumns=4

endheader
time	 med_gas_r	  soleus_r	 tib_ant_r	
3.49272	  0.018916	  0.026205	  0.014055	
3.52598	  0.019016	  0.025598	  0.013879	
3.55925	  0.019141	  0.025043	  0.013740	
3.59251	  0.019302	  0.024574	  0.013663	
3.62578	  0.019519	  0.024228	  0.013650	
3.65904	  0.019812	  0.024036	  0.013676	
3.6923	  0.020186	  0.024009	  0.013708	
3.72557	  0.020633	  0.024126	  0.013724	
3.75883	  0.021121	  0.024335	  0.013719	
3.7921	  0.021595	  0.024565	  0.013695	
3.82536	  0.021992	  0.024747	  0.013658	
3.85862	  0.022246	  0.024830	  0.013605	
3.89189	  0.022316	  0.024790	  0.013525	
3.92515	  0.022192	  0.024621	  0.013404	
3.95842	  0.021884	  0.024336	  0.013241	
3.99168	  0.021406	  0.023969	  0.013052	
4.02494	  0.020754	  0.023570	  0.012867	
4.05821	  0.019916	  0.023193	  0.012714	
4.09147	  0.018885	  0.022877	  0.012601	
4.12474	  0.017694	  0.022637	  0.012517	
4.158	  0.016444	  0.022476	  0.012446	
4.19126	  0.015336	  0.022415	  0.012389	
4.22453	  0.014720	  0.022508	  0.012362	
4.25779	  0.015120	  0.022849	  0.012395	
4.29106	  0.017236	  0.023548	  0.012503	
4.32432	  0.021876	  0.024716	  0.012680	
4.35758	  0.029875	  0.026451	  0.012908	
4.39085	  0.042020	  0.028827	  0.013184	
4.42411	  0.058895	  0.031842	  0.013538	
4.45738	  0.080493	  0.035345	  0.014018	
4.49064	  0.105567	  0.038976	  0.014650	
4.5239	  0.131152	  0.042216	  0.015392	
4.55717	  0.152938	  0.044547	  0.016129	
4.59043	  0.166791	  0.045653	  0.016711	
4.6237	  0.170713	  0.045552	  0.017028	
4.65696	  0.165901	  0.044569	  0.017068	
4.69022	  0.156075	  0.043165	  0.016924	
4.72349	  0.145526	  0.041734	  0.016732	
4.75675	  0.137246	  0.040497	  0.016594	
4.79002	  0.132166	  0.039528	  0.016534	
4.82328	  0.129558	  0.038851	  0.016511	
4.85654	  0.127990	  0.038515	  0.016471	
4.88981	  0.126253	  0.038582	  0.016383	
4.92307	  0.123930	  0.039060	  0.016253	
4.95634	  0.121403	  0.039842	  0.016106	
4.9896	  0.119339	  0.040714	  0.015970	
5.02286	  0.118065	  0.041426	  0.015868	
5.05613	  0.117341	  0.041799	  0.015823	
5.08939	  0.116703	  0.041823	  0.015858	
5.12266	  0.115930	  0.041673	  0.015985	
5.15592	  0.115136	  0.041623	  0.016196	
5.18918	  0.114460	  0.041877	  0.016447	
5.22245	  0.113833	  0.042446	  0.016663	
5.25571	  0.113117	  0.043166	  0.016773	
5.28898	  0.112438	  0.043873	  0.016737	
5.32224	  0.112232	  0.044552	  0.016559	
5.3555	  0.112829	  0.045309	  0.016262	
5.38877	  0.113915	  0.046157	  0.015846	
5.42203	  0.114463	  0.046859	  0.015261	
5.4553	  0.113329	  0.047032	  0.014446	
5.48856	  0.110084	  0.046443	  0.013383	
5.52182	  0.105322	  0.045201	  0.012142	
5.55509	  0.100149	  0.043656	  0.010874	
5.58835	  0.095291	  0.042090	  0.009805	
5.62162	  0.090566	  0.040518	  0.009266	
5.65488	  0.085098	  0.038757	  0.009758	
5.68814	  0.078045	  0.036677	  0.011983	
5.72141	  0.069313	  0.034387	  0.016767	
5.75467	  0.059764	  0.032227	  0.024950	
5.78794	  0.050819	  0.030607	  0.037329	
5.8212	  0.043749	  0.029829	  0.054660	
5.85446	  0.039123	  0.030005	  0.077437	
5.88773	  0.036723	  0.031048	  0.105246	
5.92099	  0.035905	  0.032698	  0.135979	
5.95426	  0.036103	  0.034581	  0.165703	
5.98752	  0.037104	  0.036302	  0.189864	
6.02078	  0.038924	  0.037571	  0.205390	
6.05405	  0.041488	  0.038288	  0.212176	
6.08731	  0.044486	  0.038528	  0.212717	
6.12058	  0.047566	  0.038458	  0.210161	
6.15384	  0.050608	  0.038244	  0.206479	
6.1871	  0.053720	  0.038005	  0.202168	
6.22037	  0.056917	  0.037808	  0.197287	
6.25363	  0.059880	  0.037679	  0.192497	
6.2869	  0.062109	  0.037629	  0.189086	
6.32016	  0.063322	  0.037677	  0.188195	
6.35342	  0.063636	  0.037857	  0.190107	
6.38669	  0.063377	  0.038189	  0.194084	
6.41995	  0.062796	  0.038653	  0.198701	
6.45322	  0.062033	  0.039192	  0.202503	
6.48648	  0.061314	  0.039744	  0.204837	
6.51974	  0.061072	  0.040280	  0.206352	
6.55301	  0.061824	  0.040817	  0.208602	
6.58627	  0.063943	  0.041426	  0.212866	
6.61954	  0.067490	  0.042206	  0.219141	
6.6528	  0.072175	  0.043248	  0.226238	
6.68606	  0.077437	  0.044599	  0.232788	
6.71933	  0.082671	  0.046268	  0.238092	
6.75259	  0.087579	  0.048258	  0.242042	
6.78586	  0.092364	  0.050543	  0.244529	
6.81912	  0.097485	  0.052980	  0.245286	
6.85238	  0.103022	  0.055217	  0.244444	
6.88565	  0.108237	  0.056751	  0.243022	
6.91891	  0.111868	  0.057178	  0.242548	
6.95218	  0.113007	  0.056442	  0.243970	
6.98544	  0.111786	  0.054878	  0.246913	
7.0187	  0.109186	  0.052991	  0.249980	
7.05197	  0.106234	  0.051162	  0.251823	
7.08523	  0.103358	  0.049513	  0.252072	
7.1185	  0.100427	  0.048003	  0.251468	
7.15176	  0.097209	  0.046597	  0.251295	
7.18502	  0.093734	  0.045362	  0.252624	
7.21829	  0.090304	  0.044442	  0.255893	
7.25155	  0.087305	  0.043970	  0.260901	
7.28482	  0.085020	  0.043991	  0.266996	
7.31808	  0.083561	  0.044433	  0.273228	
7.35134	  0.082885	  0.045124	  0.278468	
7.38461	  0.082878	  0.045847	  0.281684	
7.41787	  0.083414	  0.046411	  0.282331	
7.45114	  0.084389	  0.046730	  0.280627	
7.4844	  0.085691	  0.046858	  0.277538	
7.51766	  0.087156	  0.046946	  0.274521	
7.55093	  0.088529	  0.047148	  0.273095	
7.58419	  0.089514	  0.047527	  0.274268	
7.61746	  0.089914	  0.048023	  0.278023	
7.65072	  0.089792	  0.048529	  0.283226	
7.68398	  0.089486	  0.048999	  0.288199	
7.71725	  0.089468	  0.049508	  0.291640	
7.75051	  0.090113	  0.050197	  0.293219	
7.78378	  0.091561	  0.051136	  0.293429	
7.81704	  0.093725	  0.052228	  0.292958	
7.8503	  0.096371	  0.053236	  0.292230	
7.88357	  0.099188	  0.053915	  0.291462	
7.91683	  0.101828	  0.054137	  0.291021	
7.9501	  0.104006	  0.053937	  0.291557	
7.98336	  0.105672	  0.053484	  0.293678	
8.01662	  0.107122	  0.053033	  0.297438	
8.04989	  0.108879	  0.052855	  0.302208	
8.08315	  0.111303	  0.053139	  0.307164	
8.11642	  0.114207	  0.053860	  0.312042	
8.14968	  0.116765	  0.054761	  0.317477	
8.18294	  0.117875	  0.055480	  0.324595	
8.21621	  0.116795	  0.055777	  0.334152	
8.24947	  0.113658	  0.055664	  0.345833	
8.28274	  0.109527	  0.055364	  0.358227	
8.316	  0.105903	  0.055159	  0.369494	
8.34926	  0.103960	  0.055244	  0.378246	
8.38253	  0.103978	  0.055649	  0.384031	
8.41579	  0.105354	  0.056259	  0.387230	
8.44906	  0.107159	  0.056885	  0.388671	
8.48232	  0.108780	  0.057359	  0.389357	
8.51558	  0.110167	  0.057600	  0.390334	
8.54885	  0.111639	  0.057596	  0.392423	
8.58211	  0.113514	  0.057361	  0.395780	
8.61538	  0.115870	  0.056919	  0.399620	
8.64864	  0.118474	  0.056335	  0.402517	
8.6819	  0.120886	  0.055732	  0.403204	
8.71517	  0.122684	  0.055269	  0.401380	
8.74843	  0.123717	  0.055060	  0.397967	
8.7817	  0.124158	  0.055135	  0.394694	
8.81496	  0.124269	  0.055474	  0.393219	
8.84822	  0.124066	  0.056078	  0.394267	
8.88149	  0.123227	  0.056996	  0.397328	
8.91475	  0.121402	  0.058273	  0.401124	
8.94802	  0.118648	  0.059896	  0.404516	
8.98128	  0.115568	  0.061782	  0.407072	
9.01454	  0.112964	  0.063813	  0.408890	
9.04781	  0.111282	  0.065848	  0.409984	
9.08107	  0.110335	  0.067708	  0.409966	
9.11434	  0.109530	  0.069178	  0.408394	
9.1476	  0.108388	  0.070090	  0.405459	
9.18086	  0.106883	  0.070405	  0.402302	
9.21413	  0.105353	  0.070228	  0.400533	
9.24739	  0.104151	  0.069734	  0.401224	
9.28066	  0.103468	  0.069077	  0.404133	
9.31392	  0.103469	  0.068343	  0.407849	
9.34718	  0.104445	  0.067543	  0.410817	
9.38045	  0.106643	  0.066615	  0.412421	
9.41371	  0.109901	  0.065448	  0.413332	
9.44698	  0.113586	  0.063932	  0.415010	
9.48024	  0.117030	  0.062016	  0.418901	
9.5135	  0.120029	  0.059761	  0.425822	
9.54677	  0.122824	  0.057346	  0.435628	
9.58003	  0.125598	  0.055038	  0.447108	
9.6133	  0.128092	  0.053132	  0.458193	
9.64656	  0.129800	  0.051871	  0.466630	
9.67982	  0.130538	  0.051369	  0.470963	
9.71309	  0.130745	  0.051600	  0.471255	
9.74635	  0.131134	  0.052441	  0.469096	
9.77962	  0.132001	  0.053748	  0.466924	
9.81288	  0.132852	  0.055409	  0.467173	
9.84614	  0.132778	  0.057350	  0.471631	
9.87941	  0.131218	  0.059528	  0.481027	
9.91267	  0.128365	  0.061896	  0.494834	
9.94594	  0.124843	  0.064349	  0.511461	
9.9792	  0.121095	  0.066666	  0.528912	
10.0125	  0.117157	  0.068533	  0.545545	
10.0457	  0.113015	  0.069665	  0.560309	
10.079	  0.109064	  0.069945	  0.572266	
10.1123	  0.106116	  0.069492	  0.579992	
10.1455	  0.104903	  0.068587	  0.581756	
10.1788	  0.105578	  0.067518	  0.576662	
10.212	  0.107670	  0.066424	  0.565800	
10.2453	  0.110500	  0.065246	  0.552284	
10.2786	  0.113609	  0.063814	  0.540000	
10.3118	  0.116810	  0.062029	  0.531999	
10.3451	  0.119870	  0.059990	  0.529595	
10.3784	  0.122243	  0.057999	  0.532448	
10.4116	  0.123235	  0.056465	  0.539140	
10.4449	  0.122594	  0.055804	  0.547741	
10.4782	  0.120971	  0.056361	  0.556247	
10.5114	  0.119681	  0.058325	  0.562992	
10.5447	  0.119784	  0.061596	  0.566910	
10.578	  0.121279	  0.065723	  0.567430	
10.6112	  0.123215	  0.070016	  0.564120	
10.6445	  0.124578	  0.073795	  0.556620	
10.6777	  0.125030	  0.076618	  0.545153	
10.711	  0.124777	  0.078349	  0.531220	
10.7443	  0.123900	  0.079091	  0.517578	
10.7775	  0.122018	  0.079056	  0.507132	
10.8108	  0.118680	  0.078463	  0.501399	
10.8441	  0.114000	  0.077482	  0.499707	
10.8773	  0.108805	  0.076218	  0.499769	
10.9106	  0.104148	  0.074752	  0.499173	
10.9439	  0.100673	  0.073199	  0.496784	
10.9771	  0.098416	  0.071723	  0.493214	
11.0104	  0.097148	  0.070503	  0.490266	
11.0436	  0.096855	  0.069673	  0.489751	
11.0769	  0.097869	  0.069299	  0.492481	
11.1102	  0.100505	  0.069399	  0.498095	
11.1434	  0.104501	  0.069974	  0.505741	
11.1767	  0.108790	  0.071014	  0.514892	
11.21	  0.111890	  0.072495	  0.525482	
11.2432	  0.112758	  0.074354	  0.537380	
11.2765	  0.111458	  0.076438	  0.549895	
11.3098	  0.109072	  0.078446	  0.561833	
11.343	  0.106880	  0.079931	  0.571895	
11.3763	  0.105471	  0.080416	  0.578937	
11.4096	  0.104508	  0.079591	  0.582015	
11.4428	  0.103250	  0.077461	  0.580460	
11.4761	  0.101330	  0.074348	  0.574075	
11.5093	  0.099112	  0.070741	  0.563345	
11.5426	  0.097400	  0.067112	  0.549613	
11.5759	  0.096818	  0.063832	  0.535242	
11.6091	  0.097358	  0.061230	  0.523523	
11.6424	  0.098419	  0.059699	  0.517972	
11.6757	  0.099226	  0.059714	  0.521084	
11.7089	  0.099338	  0.061669	  0.533301	
11.7422	  0.098944	  0.065656	  0.552946	
11.7755	  0.098755	  0.071361	  0.577104	
11.8087	  0.099526	  0.078149	  0.602769	
11.842	  0.101467	  0.085250	  0.627501	
11.8752	  0.103993	  0.091922	  0.649471	
11.9085	  0.106068	  0.097541	  0.667223	
11.9418	  0.106883	  0.101660	  0.679612	
11.975	  0.106290	  0.104039	  0.685921	
12.0083	  0.104681	  0.104623	  0.685812	
12.0416	  0.102597	  0.103473	  0.678963	
12.0748	  0.100557	  0.100708	  0.664730	
12.1081	  0.099192	  0.096539	  0.642403	
12.1414	  0.099315	  0.091331	  0.612015	
12.1746	  0.101630	  0.085588	  0.574988	
12.2079	  0.106240	  0.079817	  0.533998	
12.2412	  0.112402	  0.074375	  0.492258	
